HIERARCHY
ROOT Hips
{
	OFFSET 0.000000 0.000000 0.000000
	CHANNELS 6 Xposition Yposition Zposition Zrotation Yrotation Xrotation 
	JOINT LHipJoint
	{
		OFFSET 0.000000 0.000000 0.000000
		CHANNELS 3 Zrotation Yrotation Xrotation
		JOINT LeftUpLeg
		{
			OFFSET 1.363060 -1.794630 0.839290
			CHANNELS 3 Zrotation Yrotation Xrotation
			JOINT LeftLeg
			{
				OFFSET 2.448110 -6.726130 0.000000
				CHANNELS 3 Zrotation Yrotation Xrotation
				JOINT LeftFoot
				{
					OFFSET 2.562200 -7.039590 0.000000
					CHANNELS 3 Zrotation Yrotation Xrotation
					JOINT LeftToeBase
					{
						OFFSET 0.157640 -0.433110 2.322550
						CHANNELS 3 Zrotation Yrotation Xrotation
						End Site
						{
							OFFSET 0.000000 0.000000 0.000000
						}
					}
				}
			}
		}
	}
	JOINT RHipJoint
	{
		OFFSET 0.000000 0.000000 0.000000
		CHANNELS 3 Zrotation Yrotation Xrotation
		JOINT RightUpLeg
		{
			OFFSET -1.305520 -1.794630 0.839290
			CHANNELS 3 Zrotation Yrotation Xrotation
			JOINT RightLeg
			{
				OFFSET -2.542530 -6.985550 0.000000
				CHANNELS 3 Zrotation Yrotation Xrotation
				JOINT RightFoot
				{
					OFFSET -2.568260 -7.056230 0.000000
					CHANNELS 3 Zrotation Yrotation Xrotation
					JOINT RightToeBase
					{
						OFFSET -0.164730 -0.452590 2.363150
						CHANNELS 3 Zrotation Yrotation Xrotation
						End Site
						{
							OFFSET 0.000000 0.000000 0.000000
						}
					}
				}
			}
		}
	}
	JOINT LowerBack
	{
		OFFSET 0.000000 0.000000 0.000000
		CHANNELS 3 Zrotation Yrotation Xrotation
		JOINT Spine
		{
			OFFSET 0.028270 2.035590 -0.193380
			CHANNELS 3 Zrotation Yrotation Xrotation
			JOINT Spine1
			{
				OFFSET 0.056720 2.048850 -0.042750
				CHANNELS 3 Zrotation Yrotation Xrotation
				JOINT Neck
				{
					OFFSET 0.000000 0.000000 0.000000
					CHANNELS 3 Zrotation Yrotation Xrotation
					JOINT Neck1
					{
						OFFSET -0.054170 1.746240 0.172020
						CHANNELS 3 Zrotation Yrotation Xrotation
						JOINT Head
						{
							OFFSET 0.104070 1.761360 -0.123970
							CHANNELS 3 Zrotation Yrotation Xrotation
							End Site
							{
								OFFSET 0.000000 0.000000 0.000000
							}
						}
					}
				}
				JOINT LeftShoulder
				{
					OFFSET 0.000000 0.000000 0.000000
					CHANNELS 3 Zrotation Yrotation Xrotation
					JOINT LeftArm
					{
						OFFSET 3.362410 1.200890 -0.311210
						CHANNELS 3 Zrotation Yrotation Xrotation
						JOINT LeftForeArm
						{
							OFFSET 4.983000 -0.000000 -0.000000
							CHANNELS 3 Zrotation Yrotation Xrotation
							JOINT LeftHand
							{
								OFFSET 3.483560 -0.000000 -0.000000
								CHANNELS 3 Zrotation Yrotation Xrotation
								JOINT LeftFingerBase
								{
									OFFSET 0.000000 0.000000 0.000000
									CHANNELS 3 Zrotation Yrotation Xrotation
									JOINT LeftHandIndex1
									{
										OFFSET 0.715260 -0.000000 -0.000000
										CHANNELS 3 Zrotation Yrotation Xrotation
										End Site
										{
											OFFSET 0.000000 0.000000 0.000000
										}
									}
								}
								JOINT LThumb
								{
									OFFSET 0.000000 0.000000 0.000000
									CHANNELS 3 Zrotation Yrotation Xrotation
									End Site
									{
										OFFSET 0.000000 0.000000 0.000000
									}
								}
							}
						}
					}
				}
				JOINT RightShoulder
				{
					OFFSET 0.000000 0.000000 0.000000
					CHANNELS 3 Zrotation Yrotation Xrotation
					JOINT RightArm
					{
						OFFSET -3.136600 1.374050 -0.404650
						CHANNELS 3 Zrotation Yrotation Xrotation
						JOINT RightForeArm
						{
							OFFSET -5.241900 -0.000000 -0.000000
							CHANNELS 3 Zrotation Yrotation Xrotation
							JOINT RightHand
							{
								OFFSET -3.444170 -0.000000 -0.000000
								CHANNELS 3 Zrotation Yrotation Xrotation
								JOINT RightFingerBase
								{
									OFFSET 0.000000 0.000000 0.000000
									CHANNELS 3 Zrotation Yrotation Xrotation
									JOINT RightHandIndex1
									{
										OFFSET -0.622530 -0.000000 -0.000000
										CHANNELS 3 Zrotation Yrotation Xrotation
										End Site
										{
											OFFSET 0.000000 0.000000 0.000000
										}
									}
								}
								JOINT RThumb
								{
									OFFSET 0.000000 0.000000 0.000000
									CHANNELS 3 Zrotation Yrotation Xrotation
									End Site
									{
										OFFSET 0.000000 0.000000 0.000000
									}
								}
							}
						}
					}
				}
			}
		}
	}
}
MOTION
Frames: 7
Frame Time: 0.008333
2.266813 17.895278 24.234003 -172.482177 5.392857 -178.129632 -0.118671 -1.411835 -1.102667 -5.468262 -9.591876 -42.129687 1.447086 8.964021 25.098235 0.663784 0.485423 -14.988795 1.203700 -6.960700 -19.599100 -2.990016 0.137338 -2.376161 34.044941 -11.898207 13.986829 -0.737979 -0.227611 0.353833 -0.153762 9.816472 1.237983 -0.035800 -1.221500 3.358500 7.602932 5.229566 4.122952 0.725890 6.731403 -1.995548 0.167986 3.842413 1.260582 -7.833220 -5.490943 -10.584374 6.588483 -6.952367 12.430182 3.663400 -3.580800 8.243900 -6.077695 4.049271 -2.288152 -79.126645 21.514107 -7.843715 9.511894 -20.393580 -1.057428 1.227691 -0.270737 17.469013 -0.564798 40.125291 -1.163300 -7.125000 0.000000 0.000000 -46.652800 63.884300 -23.821300 2.287945 -3.145091 -0.206976 74.506606 37.654424 16.418710 -28.932332 40.892436 -9.894177 -0.112917 -0.348666 -28.178873 -18.115890 18.359492 -5.882300 7.125000 0.000000 0.000000 6.708000 -10.554300 5.404000 
2.267010 17.904732 24.121332 -172.542195 5.263926 -178.236114 -0.101741 -1.421367 -1.110136 -5.482946 -9.855509 -42.495256 1.443380 8.922616 24.970208 0.655807 0.036094 -14.230254 0.863400 -5.925200 -16.567500 -2.962887 0.155509 -2.386372 33.835795 -12.217084 14.437658 -0.728913 -0.228682 0.351771 -0.157185 9.807794 1.146839 -0.016200 -0.823000 2.261800 7.642993 5.285858 4.272156 0.628665 6.813337 -1.974673 -0.165192 3.879999 1.278853 -7.562515 -5.605328 -10.698905 6.617044 -7.194428 12.617931 3.590400 -3.676600 8.352100 -6.096252 4.044675 -2.292783 -78.519114 21.677076 -7.821435 9.440486 -20.281423 -1.027535 1.233551 -0.269042 17.547329 -0.937136 40.127247 -1.405700 -7.125000 0.000000 0.000000 -46.989400 63.773400 -23.912700 2.290615 -3.151011 -0.198271 74.277418 37.902307 16.209887 -29.640826 41.527824 -10.332690 -0.113204 -0.363138 -28.283947 -18.797883 18.088396 -6.038500 7.125000 0.000000 0.000000 6.254600 -10.736200 5.010700 
2.261495 17.910642 24.005903 -172.581407 5.063509 -178.316319 -0.102095 -1.425469 -1.105027 -5.714687 -9.920483 -42.824898 1.451189 8.917128 24.952724 0.678637 -0.388572 -13.892452 0.755300 -5.550800 -15.486400 -2.948378 0.174148 -2.391247 33.652645 -12.571478 14.817100 -0.720481 -0.229445 0.351310 -0.158441 9.733861 1.215135 -0.001600 -0.256000 0.703400 7.637338 5.229691 4.537298 0.604984 6.775208 -2.023094 -0.263383 3.856042 1.003902 -7.686161 -5.627532 -10.622993 6.817426 -7.236252 12.682197 3.687000 -3.693800 8.398300 -6.112845 4.030750 -2.318444 -78.331600 22.054478 -8.399847 9.391047 -20.180921 -0.994370 1.235461 -0.268116 17.929741 -1.354804 40.411964 -1.684200 -7.125000 0.000000 0.000000 -47.768400 63.841600 -24.474700 2.286083 -3.108642 -0.194421 73.874849 37.879772 16.256174 -30.544062 42.280544 -10.883329 -0.110277 -0.381227 -28.302838 -19.342970 17.633926 -6.085200 7.125000 0.000000 0.000000 5.878700 -11.120300 4.659700 
2.249381 17.913301 23.887323 -172.748259 5.249404 -178.278170 -0.094998 -1.436633 -1.113951 -5.915157 -10.023517 -43.215841 1.449994 8.935683 24.995537 0.663491 -0.096906 -14.143917 0.937400 -6.166900 -17.269500 -2.928247 0.198148 -2.405499 33.263659 -12.489578 15.227556 -0.720756 -0.227157 0.351096 -0.156693 9.641120 1.359632 -0.010100 -0.648400 1.781800 7.528134 5.363885 4.491246 0.539729 6.937079 -2.014784 -0.355348 3.930191 1.045259 -7.786973 -5.726099 -10.442020 7.088853 -7.382657 12.552904 3.797400 -3.748300 8.347700 -6.131111 4.054739 -2.322480 -78.045429 22.232065 -8.914191 9.251223 -19.944090 -0.936292 1.240487 -0.276185 18.366590 -1.446967 40.459362 -1.749400 -7.125000 0.000000 0.000000 -47.921400 63.843100 -24.572900 2.280299 -3.106925 -0.188239 73.423682 38.525574 15.866818 -30.683700 42.422097 -10.980612 -0.109495 -0.379859 -28.686733 -19.411724 17.729992 -6.139100 7.125000 0.000000 0.000000 5.838700 -11.014500 4.640400 
2.239926 17.901088 23.769137 -172.238894 5.580345 -178.262012 -0.076497 -1.444600 -1.124417 -5.107392 -10.314134 -43.352441 1.457310 8.952493 25.039620 0.623536 0.210748 -14.105546 0.942100 -6.182000 -17.313500 -2.924526 0.196141 -2.403502 33.567951 -12.319655 15.799152 -0.716509 -0.229623 0.363551 -0.155198 9.617936 1.602688 -0.062300 -1.610500 4.430500 8.203745 5.483579 4.611249 0.519503 7.131222 -2.000813 -0.767723 4.036788 1.095246 -7.605798 -5.769670 -10.417618 7.194528 -7.492783 12.479978 3.799000 -3.779200 8.326300 -6.139063 4.067770 -2.329025 -77.646751 22.460587 -9.046246 9.168890 -19.797438 -0.891036 1.247942 -0.279993 18.329957 -1.314413 40.654630 -1.675600 -7.125000 0.000000 0.000000 -48.102900 64.013500 -24.873300 2.287937 -3.122225 -0.181356 73.432207 39.136495 15.651502 -30.890819 42.618184 -11.121117 -0.112260 -0.381350 -29.012228 -19.608643 18.047522 -6.309700 7.125000 0.000000 0.000000 5.730200 -10.660300 4.595000 
2.235494 17.889073 23.655284 -171.595004 5.878623 -178.044245 -0.056945 -1.451459 -1.139337 -4.159450 -10.433819 -43.640240 1.452546 8.933283 24.973166 0.612361 0.290317 -14.080761 1.063800 -6.557200 -18.410100 -2.943431 0.183194 -2.392229 34.136485 -12.096151 16.176780 -0.712681 -0.232554 0.379178 -0.154278 9.559740 1.879921 -0.103600 -2.075900 5.715600 8.840829 5.497075 4.661852 0.586656 7.187777 -2.007746 -0.893962 4.078182 1.115827 -7.737659 -5.711298 -10.717401 7.340762 -7.384221 12.542620 3.891700 -3.715800 8.426600 -6.136660 4.075576 -2.346885 -77.732730 22.579991 -9.783551 9.116795 -19.689152 -0.858966 1.250184 -0.282132 18.592472 -1.398657 40.857999 -1.738800 -7.125000 0.000000 0.000000 -48.478200 64.122800 -25.232500 2.309547 -3.128929 -0.194439 73.386524 39.635320 15.865025 -31.209913 42.896350 -11.322783 -0.114732 -0.378735 -28.979685 -19.771587 18.505952 -6.517700 7.125000 0.000000 0.000000 5.650800 -10.164900 4.587800 
2.230668 17.888088 23.538083 -171.713214 6.048144 -177.807310 -0.050517 -1.463072 -1.157891 -4.454265 -10.068409 -44.185743 1.446477 8.904275 24.889846 0.636650 -0.011204 -13.930276 1.304700 -7.236000 -20.416400 -2.948027 0.197530 -2.409146 33.932802 -11.956316 16.419042 -0.714141 -0.230582 0.380224 -0.153301 9.496045 1.981929 -0.057000 -1.540400 4.237100 8.517666 5.489933 4.390234 0.647185 7.134429 -1.955459 -0.469843 4.051683 1.371870 -8.206964 -5.711949 -11.020587 7.447693 -7.268697 12.605413 4.027200 -3.670200 8.526700 -6.132450 4.104314 -2.348731 -78.177486 22.539244 -10.773430 9.054860 -19.588117 -0.831879 1.250404 -0.285393 19.005986 -1.480778 41.017231 -1.798100 -7.125000 0.000000 0.000000 -48.783100 64.201600 -25.515100 2.336076 -3.151388 -0.212710 72.927050 40.363902 16.017864 -31.372283 43.070269 -11.430319 -0.109927 -0.365446 -28.899364 -19.509538 18.844327 -6.534300 7.125000 0.000000 0.000000 5.833700 -9.857700 4.774300 
